<?xml version="1.0" encoding="UTF-8"?>
<svg width="48px" height="48px" viewBox="0 0 48 48" version="1.1" xmlns="http://www.w3.org/2000/svg" xmlns:xlink="http://www.w3.org/1999/xlink">
    <title>370EE1EB-085C-4A0E-9D42-6E7A4299ECD0</title>
    <g id="UI-kit" stroke="none" stroke-width="1" fill="none" fill-rule="evenodd">
        <g id="Connectors" transform="translate(-120.000000, -2472.000000)" fill="#29B5E8" fill-rule="nonzero">
            <g id="Connector/Ably-Copy-150" transform="translate(120.000000, 2472.000000)">
                <path d="M27.0153665,31.8202729 C27.8412842,30.3968371 29.6660855,29.9094182 31.0930639,30.728972 L31.0930639,30.728972 L41.2505509,36.5823146 C42.6818531,37.4018694 43.1704846,39.2221421 42.3445669,40.645579 C41.5229731,42.0690148 39.6938478,42.5607479 38.2668695,41.7368799 L38.2668695,41.7368799 L32.5762551,38.4586628 L32.5762551,45.036664 C32.5762551,46.6714594 31.2444092,48 29.6055476,48 C27.96236,48 26.6305152,46.6714594 26.6305152,45.036664 L26.6305152,45.036664 L26.6305152,33.5974117 C26.5699762,32.9978427 26.695377,32.3810211 27.0153665,31.8202729 Z M16.8362578,30.728972 C17.4762357,30.3623295 18.1983732,30.2544937 18.8729445,30.3838965 C20.2912739,30.6081955 21.3766422,31.8332135 21.3766422,33.3127249 L21.3766422,33.3127249 L21.3766422,45.036664 C21.3766422,46.6714594 20.0447962,48 18.4059336,48 C16.7627471,48 15.4309011,46.6714594 15.4309011,45.036664 L15.4309011,45.036664 L15.4309011,38.4155278 L9.662451,41.7368799 C8.23547378,42.5607479 6.41067134,42.073328 5.58475472,40.645579 C4.75883701,39.2221421 5.25179352,37.4018694 6.67877074,36.5823146 L6.67877074,36.5823146 Z M43.5207425,15.5585912 C44.9477197,14.7347232 46.7768461,15.2221421 47.5984399,16.6498922 C48.4243576,18.0733291 47.935725,19.8936017 46.5044228,20.7131555 L46.5044228,20.7131555 L40.7532704,24.0258801 L46.5044228,27.3386048 C47.9314011,28.1624728 48.4243576,29.9827465 47.5984399,31.4061823 C46.7725222,32.8296193 44.9477197,33.3170381 43.5207425,32.4974844 L43.5207425,32.4974844 L33.3632555,26.6441406 C32.3989642,26.0920199 31.8627665,25.0783614 31.8714143,24.0388207 C31.8541187,22.9949679 32.3903153,21.9683678 33.3632555,21.4076207 L33.3632555,21.4076207 Z M2.92106287,15.2307695 C3.42699108,15.2307695 3.93291929,15.3644854 4.3739857,15.6189789 L4.3739857,15.6189789 L14.5314727,21.4680084 C15.4481978,21.9985622 16.0060161,22.9820273 15.9887194,24.0388207 C15.9973683,25.0869878 15.4395489,26.0618255 14.5314727,26.5880661 L14.5314727,26.5880661 L4.3739857,32.4370956 C3.93291929,32.6915891 3.42699108,32.825305 2.91673786,32.825305 C1.87893584,32.825305 0.910320629,32.268871 0.391419619,31.3716748 C0.00224441423,30.6987776 -0.101535788,29.9137314 0.101700718,29.1631917 C0.300612219,28.412653 0.784919828,27.7872029 1.45949114,27.3989935 L1.45949114,27.3989935 L7.31442476,24.0258801 L1.45949114,20.657081 C0.0671073173,19.854781 -0.412876394,18.0733291 0.391419619,16.6843997 C0.910320629,15.7872035 1.87893584,15.2307695 2.92106287,15.2307695 Z M24.5030199,18.4831054 C24.7278781,18.4831054 25.0435426,18.6125093 25.2035368,18.7721064 L29.2293441,22.7922358 C29.3893383,22.9518329 29.519063,23.2624009 29.519063,23.4910142 L29.519063,24.5133001 C29.519063,24.7375991 29.3893383,25.0481671 29.2293441,25.2120774 L25.2035368,29.2278936 C25.0435426,29.3874907 24.7278781,29.5168946 24.5030199,29.5168946 L23.4781907,29.5168946 C23.2533336,29.5168946 22.9376691,29.3874907 22.7776749,29.2278936 L18.7475437,25.2120774 C18.5875484,25.0481671 18.4578237,24.7375991 18.4578237,24.5133001 L18.4578237,23.4910142 C18.4578237,23.2624009 18.5875484,22.9518329 18.7475437,22.7922358 L22.7776749,18.7721064 C22.9376691,18.6125093 23.2533336,18.4831054 23.4781907,18.4831054 L24.5030199,18.4831054 Z M24.0100645,22.0675773 L23.9668233,22.0675773 C23.8025041,22.0675773 23.5733231,22.1624725 23.4522462,22.28325 L22.2674217,23.465133 C22.1506687,23.5815963 22.0555374,23.8102085 22.0555374,23.9784331 L22.0555374,24.0215669 C22.0555374,24.1897915 22.1506687,24.4184037 22.2674217,24.534867 L23.4522462,25.7210643 C23.5733231,25.8375275 23.8025041,25.9324227 23.9668233,25.9324227 L24.0100645,25.9324227 C24.1787076,25.9324227 24.4078886,25.8375275 24.5246416,25.7210643 L25.7137889,24.534867 C25.8305419,24.4184037 25.9256743,24.1897915 25.9256743,24.0215669 L25.9256743,23.9784331 C25.9256743,23.8145217 25.8305419,23.5859094 25.7137889,23.465133 L24.5246416,22.28325 C24.4078886,22.1624725 24.1787076,22.0675773 24.0100645,22.0675773 Z M29.6055476,1.42108547e-14 C31.2444092,1.42108547e-14 32.5762551,1.32854062 32.5762551,2.96764917 L32.5762551,2.96764917 L32.5762551,9.59741166 L38.2668695,6.31919455 C39.6938478,5.49532655 41.5186492,5.9827465 42.3445669,7.40618233 C43.1704846,8.82961926 42.6775281,10.6542062 41.2505509,11.4737599 L41.2505509,11.4737599 L31.0930639,17.3227894 C29.6660855,18.1466574 27.8412842,17.6592385 27.0153665,16.2358016 C26.6910531,15.6750534 26.5743001,15.0539175 26.6305152,14.4586628 L26.6305152,14.4586628 L26.6305152,2.96764917 C26.6305152,1.32854062 27.96236,1.42108547e-14 29.6055476,1.42108547e-14 Z M18.4059336,1.26121336e-13 C20.0447962,1.26121336e-13 21.3766422,1.32854062 21.3766422,2.96764917 L21.3766422,2.96764917 L21.3766422,14.6915893 C21.3766422,15.5542781 21.0090864,16.3306968 20.4166747,16.8741912 C19.4826529,17.7843281 18.0210823,18.0086272 16.8362578,17.3227894 L16.8362578,17.3227894 L6.67877074,11.4737599 C5.25179352,10.6498919 4.75883701,8.82961926 5.58475472,7.40618233 C6.41067134,5.9827465 8.23547378,5.49532655 9.662451,6.31919455 L9.662451,6.31919455 L15.4309011,9.64054665 L15.4309011,2.96764917 C15.4309011,1.32854062 16.7627471,1.26121336e-13 18.4059336,1.26121336e-13 Z" id="Combined-Shape"></path>
            </g>
        </g>
    </g>
</svg>